<?xml version="1.0" encoding="utf-8"?>
<!-- Generator: Adobe Illustrator 28.2.0, SVG Export Plug-In . SVG Version: 6.00 Build 0)  -->
<svg version="1.1" id="Layer_1" xmlns="http://www.w3.org/2000/svg" xmlns:xlink="http://www.w3.org/1999/xlink" x="0px" y="0px"
	 viewBox="0 0 165 54" style="enable-background:new 0 0 165 54;" xml:space="preserve">
<style type="text/css">
	.st0{fill:#5C0BAA;}
	.st1{fill:#FFFFFF;}
</style>
<g>
	<g>
		<path class="st0" d="M48.1,27c0-13.2-10.7-24-24-24s-24,10.7-24,24c0,10.6,6.8,19.5,16.3,22.7V31.3h-5.6v-5.9h5.6v-6
			c0-2.2,1.7-3.9,3.9-3.9h17v5.9h-7.7v4.1h7.7v5.9h-7.7v19C40.2,47.8,48.1,38.3,48.1,27z"/>
		<path class="st1" d="M37.4,31.3v-5.9h-7.7v-4.1h7.7v-5.9h-17c-2.2,0-3.9,1.7-3.9,3.9v6h-5.6v5.9h5.6v18.4c2.4,0.8,5,1.3,7.6,1.3
			c1.9,0,3.8-0.2,5.6-0.7v-19H37.4z"/>
	</g>
	<g>
		<path class="st1" d="M59.6,37.1V20.6h10.6v2.5h-7.6v5h6.9v2.5h-6.9v6.6H59.6z"/>
		<path class="st1" d="M75.8,37.4c-0.8,0-1.5-0.1-2.1-0.4c-0.6-0.3-1.1-0.7-1.5-1.3c-0.4-0.6-0.5-1.2-0.5-2.1c0-0.7,0.1-1.3,0.4-1.7
			c0.3-0.5,0.6-0.8,1.1-1.1c0.4-0.3,1-0.5,1.5-0.6c0.6-0.1,1.1-0.2,1.8-0.3c0.7-0.1,1.3-0.2,1.8-0.2c0.5-0.1,0.8-0.2,1-0.3
			s0.3-0.3,0.3-0.6v-0.1c0-0.4-0.1-0.8-0.2-1c-0.2-0.3-0.4-0.5-0.7-0.7c-0.3-0.2-0.7-0.2-1.2-0.2c-0.5,0-0.9,0.1-1.2,0.2
			c-0.4,0.1-0.6,0.3-0.9,0.6c-0.2,0.2-0.4,0.5-0.5,0.8L72,27.8c0.2-0.7,0.6-1.3,1.1-1.8c0.5-0.5,1.1-0.8,1.8-1.1
			c0.7-0.2,1.5-0.4,2.3-0.4c0.6,0,1.2,0.1,1.8,0.2c0.6,0.1,1.1,0.4,1.6,0.7c0.5,0.3,0.9,0.8,1.2,1.3c0.3,0.5,0.5,1.2,0.5,2.1v8.3
			h-2.8v-1.7h-0.1c-0.2,0.3-0.4,0.7-0.8,1c-0.3,0.3-0.7,0.5-1.2,0.7C77,37.3,76.5,37.4,75.8,37.4z M76.6,35.2c0.6,0,1.1-0.1,1.5-0.4
			c0.4-0.2,0.8-0.5,1-0.9c0.2-0.4,0.4-0.8,0.4-1.3v-1.5c-0.1,0.1-0.3,0.1-0.5,0.2c-0.2,0.1-0.5,0.1-0.8,0.2
			c-0.3,0.1-0.6,0.1-0.8,0.1c-0.3,0-0.5,0.1-0.7,0.1c-0.4,0.1-0.8,0.2-1.2,0.3c-0.3,0.1-0.6,0.3-0.8,0.6c-0.2,0.2-0.3,0.6-0.3,0.9
			c0,0.4,0.1,0.7,0.3,0.9c0.2,0.2,0.4,0.4,0.7,0.5C75.8,35.2,76.2,35.2,76.6,35.2z"/>
		<path class="st1" d="M90.8,37.4c-1.2,0-2.3-0.3-3.1-0.8c-0.9-0.5-1.6-1.3-2.1-2.2c-0.5-1-0.7-2.1-0.7-3.3c0-1.3,0.2-2.4,0.7-3.4
			c0.5-1,1.2-1.7,2.1-2.2c0.9-0.5,1.9-0.8,3.1-0.8c0.7,0,1.3,0.1,1.9,0.3c0.6,0.2,1.1,0.4,1.6,0.8c0.5,0.3,0.9,0.7,1.2,1.2
			c0.3,0.5,0.5,1,0.7,1.6L93.4,29c-0.1-0.3-0.2-0.6-0.3-0.9c-0.2-0.3-0.3-0.5-0.6-0.7c-0.2-0.2-0.5-0.3-0.8-0.4
			c-0.3-0.1-0.6-0.1-1-0.1c-0.7,0-1.2,0.2-1.7,0.5c-0.4,0.4-0.8,0.8-1,1.5c-0.2,0.6-0.3,1.3-0.3,2.1c0,0.8,0.1,1.4,0.3,2.1
			c0.2,0.6,0.6,1.1,1,1.5c0.4,0.4,1,0.5,1.7,0.5c0.4,0,0.7-0.1,1-0.2c0.3-0.1,0.6-0.3,0.8-0.4c0.2-0.2,0.4-0.4,0.6-0.7
			c0.2-0.3,0.3-0.6,0.3-0.9l2.7,0.6c-0.1,0.6-0.4,1.2-0.7,1.7c-0.3,0.5-0.7,0.9-1.2,1.2c-0.5,0.3-1,0.6-1.6,0.8
			C92.1,37.3,91.5,37.4,90.8,37.4z"/>
		<path class="st1" d="M104.1,37.4c-1.2,0-2.3-0.3-3.2-0.8c-0.9-0.5-1.6-1.3-2.1-2.2c-0.5-1-0.7-2.1-0.7-3.4c0-1.3,0.2-2.4,0.7-3.4
			c0.5-1,1.2-1.7,2-2.3c0.9-0.5,1.9-0.8,3.1-0.8c0.8,0,1.5,0.1,2.2,0.4c0.7,0.2,1.3,0.6,1.8,1.1c0.5,0.5,0.9,1.2,1.2,1.9
			s0.4,1.7,0.4,2.8v0.9H99.4v-2h8.7l-1.4,0.6c0-0.7-0.1-1.3-0.3-1.8c-0.2-0.5-0.5-0.9-1-1.2c-0.4-0.3-1-0.4-1.6-0.4
			c-0.6,0-1.2,0.1-1.6,0.4c-0.4,0.3-0.8,0.7-1,1.2c-0.2,0.5-0.3,1.1-0.3,1.7v1.4c0,0.8,0.1,1.4,0.4,2c0.3,0.5,0.6,0.9,1.1,1.2
			c0.5,0.3,1,0.4,1.7,0.4c0.4,0,0.8-0.1,1.1-0.2c0.3-0.1,0.6-0.3,0.9-0.5c0.3-0.2,0.4-0.5,0.6-0.9l2.7,0.5c-0.2,0.7-0.5,1.2-1,1.7
			c-0.5,0.5-1.1,0.9-1.8,1.2C105.9,37.2,105,37.4,104.1,37.4z"/>
		<path class="st1" d="M114.9,29.9v7.3h-2.9V20.6h2.8v7.2h-0.3c0.3-1.1,0.9-1.9,1.5-2.4c0.7-0.5,1.5-0.8,2.5-0.8
			c0.9,0,1.6,0.2,2.2,0.5c0.6,0.4,1.1,0.9,1.5,1.6c0.4,0.7,0.5,1.5,0.5,2.5v7.9H120v-7.4c0-0.8-0.2-1.5-0.6-2
			c-0.4-0.5-1-0.7-1.8-0.7c-0.5,0-1,0.1-1.4,0.3c-0.4,0.2-0.7,0.5-0.9,1C115.1,28.7,114.9,29.3,114.9,29.9z"/>
		<path class="st1" d="M131.3,37.4c-1.2,0-2.3-0.3-3.1-0.8c-0.9-0.5-1.6-1.3-2.1-2.2c-0.5-1-0.7-2.1-0.7-3.3c0-1.3,0.2-2.4,0.7-3.4
			c0.5-1,1.2-1.7,2.1-2.2c0.9-0.5,1.9-0.8,3.1-0.8c1.2,0,2.3,0.3,3.1,0.8c0.9,0.5,1.6,1.3,2.1,2.2s0.7,2.1,0.7,3.4
			c0,1.3-0.2,2.4-0.7,3.3c-0.5,1-1.2,1.7-2.1,2.2C133.6,37.1,132.6,37.4,131.3,37.4z M131.3,35c0.7,0,1.2-0.2,1.7-0.5
			c0.4-0.4,0.8-0.8,1-1.5c0.2-0.6,0.3-1.3,0.3-2.1c0-0.8-0.1-1.4-0.3-2.1c-0.2-0.6-0.6-1.1-1-1.5c-0.4-0.4-1-0.5-1.7-0.5
			c-0.7,0-1.2,0.2-1.7,0.5c-0.4,0.4-0.8,0.8-1,1.5c-0.2,0.6-0.3,1.3-0.3,2.1c0,0.8,0.1,1.4,0.3,2.1c0.2,0.6,0.5,1.1,1,1.5
			C130.1,34.9,130.7,35,131.3,35z"/>
		<path class="st1" d="M145.2,37.4c-1.2,0-2.3-0.3-3.1-0.8c-0.9-0.5-1.6-1.3-2.1-2.2c-0.5-1-0.7-2.1-0.7-3.3c0-1.3,0.2-2.4,0.7-3.4
			c0.5-1,1.2-1.7,2.1-2.2c0.9-0.5,1.9-0.8,3.1-0.8c1.2,0,2.3,0.3,3.1,0.8c0.9,0.5,1.6,1.3,2.1,2.2c0.5,1,0.7,2.1,0.7,3.4
			c0,1.3-0.2,2.4-0.7,3.3c-0.5,1-1.2,1.7-2.1,2.2C147.4,37.1,146.4,37.4,145.2,37.4z M145.2,35c0.7,0,1.2-0.2,1.7-0.5
			c0.4-0.4,0.8-0.8,1-1.5c0.2-0.6,0.3-1.3,0.3-2.1c0-0.8-0.1-1.4-0.3-2.1c-0.2-0.6-0.6-1.1-1-1.5c-0.4-0.4-1-0.5-1.7-0.5
			c-0.7,0-1.2,0.2-1.7,0.5c-0.4,0.4-0.8,0.8-1,1.5c-0.2,0.6-0.3,1.3-0.3,2.1c0,0.8,0.1,1.4,0.3,2.1c0.2,0.6,0.5,1.1,1,1.5
			C143.9,34.9,144.5,35,145.2,35z"/>
		<path class="st1" d="M153.6,37.1V20.6h2.9v16.5H153.6z M156.3,33.2v-3.5h0.5l4.5-5h3.4l-5.5,6.1h-0.6L156.3,33.2z M161.4,37.1
			l-4.1-5.6l2-2l5.6,7.7H161.4z"/>
	</g>
</g>
</svg>
